<svg id="Layer_1" data-name="Layer 1" xmlns="http://www.w3.org/2000/svg" viewBox="0 0 200 200"><defs><style>.cls-1{fill:#fff;}</style></defs><title>Lollipop_App icons_Approval</title><path class="cls-1" d="M100,7.71A92.29,92.29,0,1,0,192.29,100,92.29,92.29,0,0,0,100,7.71Zm14.09,135.63a1.39,1.39,0,0,1-1.39,1.39h-2.3a11.84,11.84,0,0,1-20.75,0H87.31a1.39,1.39,0,0,1-1.39-1.39v-3.77a1.39,1.39,0,0,1,1.39-1.39h25.38a1.39,1.39,0,0,1,1.39,1.39Zm-23.94-40,20.92,12.93a1,1,0,0,1,.45.81v5.78a1,1,0,0,1-1.45.81L89.14,110.71a1,1,0,0,1-.45-.81v-5.78A1,1,0,0,1,90.14,103.31Zm-1.45-5.9V91.63a1,1,0,0,1,1.45-.81l20.92,12.93a1,1,0,0,1,.45.81v5.78a1,1,0,0,1-1.45.81L89.14,98.21A1,1,0,0,1,88.69,97.4ZM90.14,116l20.77,12.76a1.6,1.6,0,0,1,.76,1.36v2.67a1.56,1.56,0,0,1-1.52,1.56l-3.06.09a2,2,0,0,1-1.1-.3L89.3,123.7a1.66,1.66,0,0,1-.78-1.39l-.05-5.37A1.09,1.09,0,0,1,90.14,116Zm20.54-29.37-8.36-5.58a.64.64,0,0,1,.35-1.17H111a.64.64,0,0,1,.64.64V86.1A.64.64,0,0,1,110.68,86.63Zm.07,4a1.66,1.66,0,0,1,.78,1.39l.05,5.37a1.09,1.09,0,0,1-1.66.94L89.14,85.53a1.6,1.6,0,0,1-.76-1.36V81.49a1.56,1.56,0,0,1,1.52-1.56L93,79.83a2,2,0,0,1,1.1.3ZM89.37,127.66l8.36,5.58a.64.64,0,0,1-.35,1.17H89a.64.64,0,0,1-.64-.64v-5.58A.64.64,0,0,1,89.37,127.66Zm24.72-52.71a1.39,1.39,0,0,1-1.39,1.39H87.31a1.39,1.39,0,0,1-1.39-1.39V71.18a1.39,1.39,0,0,1,1.39-1.39h1.48a13.33,13.33,0,1,1,22.25,0h1.66a1.39,1.39,0,0,1,1.39,1.39Z"/><path class="cls-1" d="M99.91,75.78a13.31,13.31,0,0,0,11.12-6H88.78A13.31,13.31,0,0,0,99.91,75.78Z"/><path class="cls-1" d="M88.88,141.81a8.6,8.6,0,0,0,.76,2.93H110.4a8.6,8.6,0,0,0,.76-2.93Z"/></svg>