<svg id="Layer_1" data-name="Layer 1" xmlns="http://www.w3.org/2000/svg" viewBox="0 0 200 200"><defs><style>.cls-1{fill:#fff;}</style></defs><title>Lollipop_App icons_Approval</title><path class="cls-1" d="M100,7.71A92.29,92.29,0,1,0,192.29,100,92.29,92.29,0,0,0,100,7.71ZM93,94.54c.09-2.61-.15-5.43.82-7.89a6.56,6.56,0,0,1,1.3-2.48s.37-.43.73-.29c0,0,3.71.92,6.56,6.25a1.9,1.9,0,0,1,.22,1l0,10.6H93.15C93.13,99.47,93,95.82,93,94.54Zm-1.51,8.22h12.82a1,1,0,0,1,1,1l.1,16.61a1,1,0,0,1-1,1H91.64a1,1,0,0,1-1-1l-.1-16.61A1,1,0,0,1,91.53,102.76Zm-9,37.76H66.33a1.22,1.22,0,0,1-1.22-1.22L65,90.25A1.22,1.22,0,0,1,66.2,89H82.39a1.22,1.22,0,0,1,1.22,1.22l.13,49.05A1.22,1.22,0,0,1,82.52,140.52Zm23.64.16H90a1.22,1.22,0,0,1-1.22-1.22l-.13-15.89a1.22,1.22,0,0,1,1.22-1.22H106a1.22,1.22,0,0,1,1.22,1.22l.13,15.89A1.22,1.22,0,0,1,106.16,140.68ZM122,136.83a4.56,4.56,0,0,1-9.12,0L111.28,99h12.16ZM123.12,98h-11.9l-.65-14.13h13.6ZM134.26,69l-9.64,13.89H110.1l0-.1v.1L100.44,69S97,60.34,104.92,58.8v0h24.74C137.78,60.25,134.26,69,134.26,69Z"/></svg>