<svg id="Layer_1" data-name="Layer 1" xmlns="http://www.w3.org/2000/svg" viewBox="0 0 200 200"><defs><style>.cls-1{fill:#fff;}</style></defs><title>Lollipop_App icons_Approval</title><path class="cls-1" d="M100,7.71A92.29,92.29,0,1,0,192.29,100,92.29,92.29,0,0,0,100,7.71Zm20.87,51.73h5.54a1,1,0,0,1,.93,1.3L125,67.66h-3.06l-2-7A1,1,0,0,1,120.87,59.45Zm4.37,11.27V92.87h-3.16V70.72ZM76.76,61.43a4.65,4.65,0,0,1,4.64-4.34h7.91A4.65,4.65,0,0,1,94,61.49L95.73,95a1.1,1.1,0,0,1-1.1,1.16h-19A1.1,1.1,0,0,1,74.57,95ZM99.12,137.8c-2.1,5.07-5.8,4.93-5.8,4.93l-16.57.18s-5.11-1-6.43-8-3.56-23.14-3.06-27.38c0,0,.09-8,8.44-7.76l20.4.18s6.75-.14,6.89,7.35S101.22,132.73,99.12,137.8Zm33.45,1.77a2.86,2.86,0,0,1-2.86,2.7H118.07a2.86,2.86,0,0,1-2.86-2.69l-2.46-40.42a2.72,2.72,0,0,1,2.72-2.89h16.62a2.72,2.72,0,0,1,2.72,2.87Z"/></svg>