<svg id="Layer_1" data-name="Layer 1" xmlns="http://www.w3.org/2000/svg" viewBox="0 0 200 200"><defs><style>.cls-1{fill:#fff;}.cls-2{fill:#666;}</style></defs><title>Lollipop_App icons_Approval</title><circle class="cls-1" cx="100" cy="100" r="92.29"/><circle class="cls-2" cx="99.91" cy="62.45" r="13.33"/><rect class="cls-2" x="85.91" y="69.79" width="28.17" height="6.55" rx="1.39" ry="1.39"/><rect class="cls-2" x="85.91" y="138.19" width="28.17" height="6.55" rx="1.39" ry="1.39"/><path class="cls-2" d="M111.67,86.1V80.53a.64.64,0,0,0-.64-.64h-8.36a.64.64,0,0,0-.35,1.17l8.36,5.58A.64.64,0,0,0,111.67,86.1Z"/><path class="cls-2" d="M94.06,80.13l16.69,10.46a1.66,1.66,0,0,1,.78,1.39l.05,5.37a1.09,1.09,0,0,1-1.66.94L89.14,85.53a1.6,1.6,0,0,1-.76-1.36V81.49a1.56,1.56,0,0,1,1.52-1.56L93,79.83A2,2,0,0,1,94.06,80.13Z"/><path class="cls-2" d="M88.38,128.19v5.58a.64.64,0,0,0,.64.64h8.36a.64.64,0,0,0,.35-1.17l-8.36-5.58A.64.64,0,0,0,88.38,128.19Z"/><path class="cls-2" d="M106,134.16,89.3,123.7a1.66,1.66,0,0,1-.78-1.39l-.05-5.37a1.09,1.09,0,0,1,1.66-.94l20.77,12.76a1.6,1.6,0,0,1,.76,1.36v2.67a1.56,1.56,0,0,1-1.52,1.56l-3.06.09A2,2,0,0,1,106,134.16Z"/><path class="cls-2" d="M110.06,111.15,89.14,98.21a1,1,0,0,1-.45-.81V91.63a1,1,0,0,1,1.45-.81l20.92,12.93a1,1,0,0,1,.45.81v5.78A1,1,0,0,1,110.06,111.15Z"/><path class="cls-2" d="M110.06,123.64,89.14,110.71a1,1,0,0,1-.45-.81v-5.78a1,1,0,0,1,1.45-.81l20.92,12.93a1,1,0,0,1,.45.81v5.78A1,1,0,0,1,110.06,123.64Z"/><path class="cls-2" d="M88.88,141.81c.38,5.06,5.21,9.07,11.14,9.07s10.76-4,11.14-9.07Z"/></svg>