<svg id="Layer_1" data-name="Layer 1" xmlns="http://www.w3.org/2000/svg" viewBox="0 0 200 200"><defs><style>.cls-1{fill:#fff;}.cls-2{fill:#666;}</style></defs><title>Lollipop_App icons_Approval</title><circle class="cls-1" cx="100" cy="100" r="92.29"/><path class="cls-2" d="M116.44,142.82c.28,0,.57,0,.85,0l1.11,0,2.2.05c1.45,0,2.91.06,4.37.08h1.75a.14.14,0,0,1,0,0c0-.07,0-.15,0-.23V142h-9.9a.33.33,0,0,1-.33-.33v-.42a.33.33,0,0,1,.33-.33h9.92v0l0-1.37h-9.94a.33.33,0,0,1-.33-.33v-.42a.33.33,0,0,1,.33-.33h10V137h-10a.33.33,0,0,1-.33-.33v-.42a.33.33,0,0,1,.33-.33h10v-1.42h-10a.33.33,0,0,1-.33-.33v-.42a.33.33,0,0,1,.33-.33h10v-1.42H117a.33.33,0,0,1-.33-.33v-.42a.33.33,0,0,1,.33-.33h9.89v-1.42H117a.33.33,0,0,1-.33-.33v-.42a.33.33,0,0,1,.33-.33h9.93l0-1.27v-.15H116.82a.33.33,0,0,1-.33-.33v-.42a.33.33,0,0,1,.33-.33h10.12l0-1.42H116.82a.33.33,0,0,1-.33-.33v-.42a.33.33,0,0,1,.33-.33H127l0-1.42H117a.33.33,0,0,1-.33-.33v-.42a.33.33,0,0,1,.33-.33h10v-.25l0-1.17H117a.33.33,0,0,1-.33-.33v-.42a.33.33,0,0,1,.33-.33H127l0-1.24v-.18H116.82a.33.33,0,0,1-.33-.33v-.42a.33.33,0,0,1,.33-.33h10.26l0-1.42H116.82a.33.33,0,0,1-.33-.33v-.42a.33.33,0,0,1,.33-.33h10.29l0-1.42H117a.33.33,0,0,1-.33-.33v-.42a.33.33,0,0,1,.33-.33h10.17v-1.42H117a.33.33,0,0,1-.33-.33v-.42a.33.33,0,0,1,.33-.33h10.2l0-1.42H116.82a.33.33,0,0,1-.33-.33v-.42a.33.33,0,0,1,.33-.33h10.4l0-1.42H116.82a.33.33,0,0,1-.33-.33v-.42a.33.33,0,0,1,.33-.33h10.43v-1.42H117a.33.33,0,0,1-.33-.33v-.42a.33.33,0,0,1,.33-.33h10.3l0-1.42H117a.33.33,0,0,1-.33-.33v-.42a.33.33,0,0,1,.33-.33h10.34l0-1.42H116.82a.33.33,0,0,1-.33-.33V96a.33.33,0,0,1,.33-.33h10.53l0-1.17v-.25H116.82a.33.33,0,0,1-.33-.33v-.42a.33.33,0,0,1,.33-.33h10.57l0-1.42H117a.33.33,0,0,1-.33-.33V91a.33.33,0,0,1,.33-.33h10.44l0-1.42H117a.33.33,0,0,1-.33-.33V88.5a.33.33,0,0,1,.33-.33h10.47V86.74H116.82a.33.33,0,0,1-.33-.33V86a.33.33,0,0,1,.33-.33h10.67l0-1.42H116.82a.33.33,0,0,1-.33-.33v-.42a.33.33,0,0,1,.33-.33h10.7l0-1.42H117a.33.33,0,0,1-.33-.33V81a.33.33,0,0,1,.33-.33h10.58V79.21H117a.33.33,0,0,1-.33-.33v-.42a.33.33,0,0,1,.33-.33h10.61l0-1.37v0H116.82a.33.33,0,0,1-.33-.33v-.42a.33.33,0,0,1,.33-.33h10.81l0-1.42H116.82a.33.33,0,0,1-.33-.33v-.42a.33.33,0,0,1,.33-.33h10.84l0-1.42H117a.33.33,0,0,1-.33-.33v-.42a.33.33,0,0,1,.33-.33H127.7l0-1.42H117a.33.33,0,0,1-.33-.33v-.42a.33.33,0,0,1,.33-.33h10.75v0l0-1.39H116.82a.33.33,0,0,1-.33-.33V65.9a.33.33,0,0,1,.33-.33h10.94l0-1.42h-11a.33.33,0,0,1-.33-.33v-.42a.33.33,0,0,1,.33-.33h11l0-1.3v-.12H117a.33.33,0,0,1-.33-.33v-.42a.33.33,0,0,1,.33-.33h10.85V59.12H117a.33.33,0,0,1-.33-.33v-.42A.33.33,0,0,1,117,58h10.88v-.89a2.45,2.45,0,0,0-.69-.12h-1.74c-1.46,0-2.91,0-4.37.08l-2.2.05-1.11,0c-.28,0-.57.05-.85,0s-.2,0-.19-.16a.66.66,0,0,1,.12-.34.53.53,0,0,1,.26-.15c1.71-.58,3.41-1.16,5.16-1.62a31.33,31.33,0,0,1,8.17-1.12,3.62,3.62,0,0,1,3.67,3,27.66,27.66,0,0,1,.71,5.29,608.66,608.66,0,0,1-1.07,74.77,43.41,43.41,0,0,1-.75,5.82h0v0h0c-.45,1.78-1.32,3.37-3.34,3.39a29,29,0,0,1-7.85-1.08c-1.75-.46-3.45-1-5.16-1.62a.53.53,0,0,1-.26-.15.66.66,0,0,1-.12-.34C116.25,142.82,116.25,142.83,116.44,142.82Z"/><path class="cls-2" d="M112.65,149.62l-.51.22a1.9,1.9,0,0,1-2.22-.2,35.57,35.57,0,0,0-3.34-2.37,5.56,5.56,0,0,0-3.31-.84,3.13,3.13,0,0,0-1.42.34c-4.77,2.83-10.4.51-12.9-4.08a12.34,12.34,0,0,1-.73-11A9.93,9.93,0,0,1,93.75,126l.59-.26c-.33-.94-.65-1.87-1-2.79q-3.07-8.33-6.16-16.64a1.82,1.82,0,0,0-.8-.81c-1.54-.87-3.1-1.7-4.66-2.52a.73.73,0,0,1-.46-.82c.3-3.57.59-7.15.87-10.72.43-5.48.84-11,1.28-16.43.47-5.87,1-11.75,1.4-17.62a32.89,32.89,0,0,1,1.12-7.1c0-.09.06-.17.16-.43a7.47,7.47,0,0,0,.38.75,9.4,9.4,0,0,1,1.34,5c.27,4.4.6,8.8.92,13.19s.62,8.52.93,12.77c.48,6.52,1,13,1.4,19.55a19.11,19.11,0,0,0,1.59,5.53c1.82,5,3.71,9.88,5.58,14.82.48,1.28.93,2.57,1.46,3.83a1.72,1.72,0,0,0,.78.83c3.87,1.83,5.82,5,6.49,9.1a11.81,11.81,0,0,1-.16,4.43,4,4,0,0,0,.53,2.93,14.09,14.09,0,0,0,3.39,3.86c.74.58,1.45,1.21,2.15,1.85a2.5,2.5,0,0,1,.38.72Zm-10.19-18.16c-3.9-4.05-8.21-3.58-10.52-.31a9.41,9.41,0,0,0,1.93,12.69,6,6,0,0,0,7.16-.15,8.1,8.1,0,0,0,2.87-5.11C104.38,135.48,103.65,132.75,102.46,131.46ZM85,101a1.57,1.57,0,1,0,2.15-2.29A1.57,1.57,0,0,0,85,101Z"/><path class="cls-2" d="M78.18,125.24a10.36,10.36,0,0,1,4.92,5.26,17.79,17.79,0,0,1,.89,3c.12.49.24.82.79,1a2.46,2.46,0,0,1-.52,4.73c-.48,0-.62.29-.76.67a11.59,11.59,0,0,1-3.3,4.94,8.93,8.93,0,0,1-11.34.25,11.65,11.65,0,0,1-4.28-10.8,11.27,11.27,0,0,1,4.36-8,8.46,8.46,0,0,1,4.66-1.83.73.73,0,0,0,.73-.59q2.68-7.64,5.39-15.26c.34-1,.68-2,1.06-3l5,2.27ZM78.78,142c.25-.29.51-.56.73-.86a6.15,6.15,0,0,0,.52-.84A9.6,9.6,0,0,0,80,131a6.42,6.42,0,0,0-6.31-3.6A6.66,6.66,0,0,0,68.19,132a9.49,9.49,0,0,0,.53,8.39A6.19,6.19,0,0,0,78.78,142Z"/></svg>