<?xml version="1.0" encoding="utf-8"?>
<!-- Generator: Adobe Illustrator 20.0.0, SVG Export Plug-In . SVG Version: 6.00 Build 0)  -->
<svg version="1.1" id="Layer_1" xmlns="http://www.w3.org/2000/svg" xmlns:xlink="http://www.w3.org/1999/xlink" x="0px" y="0px"
	 viewBox="0 0 841.9 595.3" style="enable-background:new 0 0 841.9 595.3;" xml:space="preserve">
<style type="text/css">
	.st0{fill:#FFFFFF;}
	.st1{fill:#C6C6C6;}
	.st2{fill:#73C7AE;}
	.st3{fill:#2F9C88;}
	.st4{fill:#F5907C;}
	.st5{fill:#F7CA89;}
	.st6{fill:#F27F9A;}
	.st7{fill:#E23C59;}
	.st8{fill:#EADCB6;}
</style>
<g>
	<g>
		<g>
			<path class="st0" d="M140.1,319.3v6.5H70.3V149.2h6.5v170.1H140.1z"/>
			<path class="st0" d="M149.8,263.8v-52.6c0.5-6.3,1.2-11.8,2.2-16.4c1-4.6,2.6-9.6,4.8-14.9c2.3-5.3,5.4-10.3,9.4-14.8
				c4-4.5,9.2-8.3,15.4-11.4c6.2-3.1,13.8-4.6,22.7-4.6c9,0,16.7,1.5,22.9,4.6c6.2,3.1,11.3,6.9,15.4,11.4c4,4.5,7.1,9.4,9.3,14.8
				c2.2,5.3,3.8,10.3,4.8,14.9c1,4.6,1.8,10.1,2.3,16.4v52.6c0,0.2-0.1,1.8-0.4,4.8c-0.2,3.1-0.9,6.9-1.9,11.5
				c-1.1,4.6-2.7,9.6-4.8,14.9c-2.2,5.3-5.3,10.3-9.3,14.8c-4,4.5-9.2,8.3-15.4,11.4c-6.2,3.1-13.9,4.6-22.9,4.6
				c-9,0-16.6-1.5-22.8-4.6c-6.1-3.1-11.2-6.9-15.3-11.4c-4-4.5-7.1-9.4-9.3-14.8c-2.2-5.3-3.8-10.3-5-14.9
				c-1.1-4.6-1.8-8.4-1.9-11.5C149.9,265.6,149.8,263.9,149.8,263.8z M252.5,263.8v-52.6c0-0.3-0.1-1.9-0.2-4.8
				c-0.2-2.9-0.7-6.4-1.7-10.5c-1-4.1-2.4-8.5-4.4-13.2c-1.9-4.7-4.7-9-8.2-13c-3.6-4-8.1-7.3-13.6-9.9c-5.5-2.7-12.2-4-20.1-4
				c-7.9,0-14.6,1.3-20,4c-5.4,2.7-9.9,6-13.4,9.9c-3.6,4-6.3,8.3-8.4,13c-2,4.7-3.5,9.1-4.4,13.2c-0.9,4.1-1.4,7.6-1.6,10.5
				c-0.2,2.9-0.2,4.5-0.2,4.8v52.6c0,0.3,0.1,1.9,0.2,4.8c0.2,2.9,0.7,6.4,1.7,10.5c1,4.1,2.4,8.5,4.4,13.2c1.9,4.7,4.7,9,8.2,13
				c3.6,4,8,7.3,13.4,9.9c5.4,2.7,12.1,4,20,4c7.9,0,14.6-1.3,20.1-4c5.5-2.7,10-6,13.6-9.9c3.6-4,6.3-8.3,8.2-13
				c1.9-4.7,3.4-9.1,4.4-13.2c1-4.1,1.5-7.6,1.7-10.5C252.4,265.7,252.5,264.1,252.5,263.8z"/>
			<path class="st0" d="M338.5,319.3v6.5h-69.8V149.2h6.5v170.1H338.5z"/>
			<path class="st0" d="M417.5,319.3v6.5h-69.8V149.2h6.5v170.1H417.5z"/>
			<path class="st0" d="M436.4,121.3v13.1h-6.3v-13.1H436.4z M436.9,149.2v176.6h-6.5V149.2H436.9z"/>
		</g>
		<g>
			<path class="st1" d="M549.3,211.2c0,4.4-0.3,8.8-0.8,13.2c-0.6,4.4-1.5,8.8-2.8,13c-1.3,4.2-3,8.2-5.1,12.1
				c-2.1,3.9-4.8,7.4-8,10.4c-4.4,4-9.4,7.3-15,9.8c-5.7,2.5-11.5,3.8-17.4,3.8h-42.6v52.3h-6.5V149.2h49.2c6,0,11.8,1.3,17.4,3.8
				c5.7,2.5,10.7,5.8,15,9.8c6.5,6.1,10.9,13.6,13.2,22.4C548.1,194,549.3,202.6,549.3,211.2z M542.8,211.2c0-7.6-1.1-15.4-3.1-23.5
				c-2.1-8.1-6-14.9-11.6-20.4c-3.7-3.4-8-6.2-12.8-8.4c-4.8-2.2-9.9-3.3-15-3.3h-42.6v111.2h42.6c5.2,0,10.2-1.1,15-3.4
				c4.8-2.3,9.1-5.1,12.8-8.5c2.9-2.6,5.3-5.7,7.1-9.2c1.9-3.6,3.4-7.3,4.5-11.1c1.1-3.9,1.9-7.8,2.4-11.9
				C542.5,218.8,542.8,214.9,542.8,211.2z"/>
			<path class="st1" d="M560,263.8v-52.6c0.5-6.3,1.2-11.8,2.2-16.4c1-4.6,2.6-9.6,4.8-14.9c2.3-5.3,5.4-10.3,9.4-14.8
				c4-4.5,9.2-8.3,15.4-11.4c6.2-3.1,13.8-4.6,22.7-4.6c9,0,16.7,1.5,22.9,4.6c6.2,3.1,11.3,6.9,15.4,11.4c4,4.5,7.1,9.4,9.3,14.8
				c2.2,5.3,3.8,10.3,4.8,14.9c1,4.6,1.8,10.1,2.3,16.4v52.6c0,0.2-0.1,1.8-0.4,4.8c-0.2,3.1-0.9,6.9-1.9,11.5
				c-1.1,4.6-2.7,9.6-4.8,14.9c-2.2,5.3-5.3,10.3-9.3,14.8c-4,4.5-9.2,8.3-15.4,11.4c-6.2,3.1-13.9,4.6-22.9,4.6
				c-9,0-16.6-1.5-22.8-4.6c-6.1-3.1-11.2-6.9-15.3-11.4c-4-4.5-7.1-9.4-9.3-14.8c-2.2-5.3-3.8-10.3-5-14.9
				c-1.1-4.6-1.8-8.4-1.9-11.5C560,265.6,560,263.9,560,263.8z M662.7,263.8v-52.6c0-0.3-0.1-1.9-0.2-4.8c-0.2-2.9-0.7-6.4-1.7-10.5
				c-1-4.1-2.4-8.5-4.4-13.2c-1.9-4.7-4.7-9-8.2-13c-3.6-4-8.1-7.3-13.6-9.9c-5.5-2.7-12.2-4-20.1-4c-7.9,0-14.6,1.3-20,4
				c-5.4,2.7-9.9,6-13.4,9.9c-3.6,4-6.3,8.3-8.4,13c-2,4.7-3.5,9.1-4.4,13.2c-0.9,4.1-1.4,7.6-1.6,10.5c-0.2,2.9-0.2,4.5-0.2,4.8
				v52.6c0,0.3,0.1,1.9,0.2,4.8c0.2,2.9,0.7,6.4,1.7,10.5c1,4.1,2.4,8.5,4.4,13.2c1.9,4.7,4.7,9,8.2,13c3.6,4,8,7.3,13.4,9.9
				c5.4,2.7,12.1,4,20,4c7.9,0,14.6-1.3,20.1-4c5.5-2.7,10-6,13.6-9.9c3.6-4,6.3-8.3,8.2-13c1.9-4.7,3.4-9.1,4.4-13.2
				c1-4.1,1.5-7.6,1.7-10.5C662.6,265.7,662.7,264.1,662.7,263.8z"/>
			<path class="st1" d="M778.3,211.2c0,4.4-0.3,8.8-0.8,13.2c-0.6,4.4-1.5,8.8-2.8,13c-1.3,4.2-3,8.2-5.1,12.1
				c-2.1,3.9-4.8,7.4-8,10.4c-4.4,4-9.4,7.3-15,9.8c-5.7,2.5-11.5,3.8-17.4,3.8h-42.6v52.3h-6.5V149.2h49.2c6,0,11.8,1.3,17.4,3.8
				c5.7,2.5,10.7,5.8,15,9.8c6.5,6.1,10.9,13.6,13.2,22.4C777.1,194,778.3,202.6,778.3,211.2z M771.7,211.2c0-7.6-1.1-15.4-3.1-23.5
				c-2.1-8.1-6-14.9-11.6-20.4c-3.7-3.4-8-6.2-12.8-8.4c-4.8-2.2-9.9-3.3-15-3.3h-42.6v111.2h42.6c5.2,0,10.2-1.1,15-3.4
				c4.8-2.3,9.1-5.1,12.8-8.5c2.9-2.6,5.3-5.7,7.1-9.2c1.9-3.6,3.4-7.3,4.5-11.1c1.1-3.9,1.9-7.8,2.4-11.9
				C771.5,218.8,771.7,214.9,771.7,211.2z"/>
		</g>
	</g>
	<g>
		<path class="st0" d="M186.4,430.2v-33.7h12.2c2,0,3.6,0.2,5,0.6c1.4,0.4,2.5,1,3.4,1.7s1.5,1.6,1.9,2.7c0.4,1,0.6,2.2,0.6,3.4
			c0,1.2-0.2,2.2-0.5,3.1c-0.3,0.9-0.7,1.6-1.2,2.2c-0.5,0.6-1.1,1-1.7,1.4c-0.6,0.3-1.3,0.6-2,0.7v0.1c2.3,0.3,4.1,1.3,5.2,2.8
			c1.1,1.5,1.7,3.4,1.7,5.6c0,1.7-0.3,3.2-0.8,4.4c-0.5,1.2-1.3,2.2-2.3,2.9c-1,0.7-2.1,1.3-3.5,1.6c-1.4,0.3-2.8,0.5-4.4,0.5H186.4
			z M189.6,411.4h8c1.7,0,3-0.1,4.2-0.4c1.1-0.3,2-0.7,2.7-1.2c0.7-0.5,1.2-1.2,1.5-2c0.3-0.8,0.4-1.7,0.4-2.7c0-1.1-0.2-2-0.5-2.7
			c-0.3-0.7-0.9-1.3-1.6-1.8c-0.7-0.5-1.7-0.8-2.9-1c-1.2-0.2-2.7-0.3-4.4-0.3h-7.3V411.4z M189.6,427.5h8.1c1.7,0,3.3-0.1,4.6-0.2
			c1.3-0.2,2.4-0.5,3.2-1c0.8-0.5,1.5-1.2,1.9-2.1c0.4-0.9,0.6-2.1,0.6-3.5c0-1.4-0.2-2.5-0.7-3.4c-0.5-0.9-1.1-1.5-2-2
			c-0.9-0.5-1.9-0.8-3.1-1c-1.2-0.2-2.6-0.3-4.1-0.3h-8.5V427.5z"/>
		<path class="st0" d="M217.6,430.2v-33.7H240v2.7h-19.2v12.2h17.3v2.7h-17.3v13.4h19.7v2.7H217.6z"/>
		<path class="st0" d="M243.1,430.2l13.2-33.7h3.6l12.9,33.7h-3.3l-3.9-10.6h-15.3l-4,10.6H243.1z M251.4,417h13.2l-6.6-17.7
			L251.4,417z"/>
		<path class="st0" d="M275.9,396.6h3.2v20.1c0,4.2,0.8,7.2,2.3,9c1.6,1.8,4.1,2.8,7.5,2.8c1.8,0,3.3-0.2,4.6-0.7s2.3-1.2,3.1-2.2
			c0.8-1,1.3-2.2,1.7-3.7c0.3-1.5,0.5-3.2,0.5-5.2v-20.1h3.2v21c0,4.4-1.1,7.8-3.2,10.1c-2.2,2.3-5.4,3.5-9.8,3.5
			c-4.4,0-7.7-1.2-9.8-3.6c-2.2-2.4-3.2-5.7-3.2-10V396.6z"/>
		<path class="st0" d="M306.6,396.6h24.5v2.7h-10.7v30.9h-3.2v-30.9h-10.7V396.6z"/>
		<path class="st0" d="M346,412.8l10.1-16.2h3.7l-12.2,19v14.7h-3.2v-14.4l-12-19.2h3.6L346,412.8z"/>
		<path class="st0" d="M375.9,413.4c0-2.5,0.3-4.8,1-6.9c0.7-2.2,1.7-4,3-5.6c1.3-1.6,2.9-2.9,4.9-3.8c1.9-0.9,4.2-1.4,6.7-1.4
			c2.6,0,4.9,0.5,6.9,1.4c2,0.9,3.6,2.2,5,3.8c1.3,1.6,2.3,3.5,3,5.7c0.7,2.2,1,4.5,1,6.9c0,2.4-0.3,4.7-1,6.8c-0.7,2.1-1.7,4-3,5.6
			s-2.9,2.9-4.9,3.8c-2,0.9-4.2,1.4-6.8,1.4c-2.6,0-4.9-0.5-6.8-1.4c-2-0.9-3.6-2.2-4.9-3.8s-2.3-3.5-2.9-5.6
			C376.2,418.2,375.9,415.9,375.9,413.4z M391.6,428.4c2.2,0,4.1-0.4,5.6-1.2c1.6-0.8,2.9-1.9,3.9-3.3c1-1.4,1.8-3,2.2-4.8
			c0.5-1.8,0.7-3.7,0.7-5.7c0-2.3-0.3-4.4-0.9-6.3c-0.6-1.9-1.4-3.4-2.5-4.7c-1.1-1.3-2.4-2.3-4-3c-1.6-0.7-3.3-1-5.2-1
			c-2.2,0-4,0.4-5.6,1.3c-1.6,0.8-2.9,2-3.9,3.3c-1,1.4-1.8,3-2.2,4.8c-0.5,1.8-0.7,3.7-0.7,5.7c0,2,0.2,3.9,0.7,5.7
			c0.5,1.8,1.2,3.4,2.2,4.8c1,1.4,2.3,2.5,3.9,3.3C387.5,428,389.4,428.4,391.6,428.4z"/>
		<path class="st0" d="M416.7,400.9L416.7,400.9l-0.1,29.4h-3.2v-33.7h3.6l19.4,29.4h0.1v-29.4h3.2v33.7h-3.7L416.7,400.9z"/>
		<path class="st0" d="M460.3,430.2v-33.7h11.5c0.9,0,1.9,0,2.8,0.1s1.8,0.2,2.7,0.3c0.9,0.2,1.7,0.4,2.5,0.8
			c0.8,0.3,1.6,0.8,2.4,1.4c1.1,0.8,2,1.8,2.8,3s1.3,2.4,1.7,3.7c0.4,1.3,0.7,2.6,0.9,3.9c0.2,1.3,0.3,2.5,0.3,3.7s-0.1,2.3-0.2,3.4
			c-0.1,1.2-0.4,2.3-0.7,3.4c-0.3,1.1-0.7,2.2-1.2,3.2c-0.5,1-1.2,1.9-1.9,2.8c-0.8,0.9-1.6,1.6-2.5,2.1c-0.9,0.5-1.9,0.9-2.9,1.2
			c-1,0.3-2.1,0.5-3.2,0.6c-1.1,0.1-2.2,0.2-3.3,0.2H460.3z M463.5,427.5h7.6c1.4,0,2.8-0.1,4-0.3c1.3-0.2,2.5-0.6,3.9-1.3
			c1.1-0.6,2-1.3,2.8-2.3c0.7-1,1.3-2,1.7-3.2c0.4-1.1,0.7-2.3,0.9-3.6c0.2-1.2,0.3-2.4,0.3-3.6c0-1.2-0.1-2.5-0.2-3.7
			c-0.2-1.3-0.5-2.5-0.9-3.6c-0.4-1.1-1-2.2-1.8-3.1c-0.7-1-1.7-1.7-2.9-2.4c-1-0.5-2.2-0.9-3.6-1c-1.4-0.2-2.8-0.2-4.2-0.2h-7.6
			V427.5z"/>
		<path class="st0" d="M494.1,430.2v-33.7h22.4v2.7h-19.2v12.2h17.3v2.7h-17.3v13.4h19.7v2.7H494.1z"/>
		<path class="st0" d="M522.5,430.2v-33.7h4.9l11,29.7h0.1l10.8-29.7h4.8v33.7H551v-30h-0.1l-11,30h-3l-11.1-30h-0.1v30H522.5z"/>
		<path class="st0" d="M558.5,430.2l13.2-33.7h3.6l12.9,33.7h-3.3l-3.9-10.6h-15.3l-4,10.6H558.5z M566.8,417H580l-6.6-17.7
			L566.8,417z"/>
		<path class="st0" d="M595.9,400.9L595.9,400.9l-0.1,29.4h-3.2v-33.7h3.6l19.4,29.4h0.1v-29.4h3.2v33.7h-3.7L595.9,400.9z"/>
		<path class="st0" d="M626.5,430.2v-33.7H638c0.9,0,1.9,0,2.8,0.1s1.8,0.2,2.7,0.3c0.9,0.2,1.7,0.4,2.5,0.8
			c0.8,0.3,1.6,0.8,2.4,1.4c1.1,0.8,2,1.8,2.8,3s1.3,2.4,1.7,3.7c0.4,1.3,0.7,2.6,0.9,3.9c0.2,1.3,0.3,2.5,0.3,3.7s-0.1,2.3-0.2,3.4
			c-0.1,1.2-0.4,2.3-0.7,3.4c-0.3,1.1-0.7,2.2-1.2,3.2c-0.5,1-1.2,1.9-1.9,2.8c-0.8,0.9-1.6,1.6-2.5,2.1c-0.9,0.5-1.9,0.9-2.9,1.2
			c-1,0.3-2.1,0.5-3.2,0.6c-1.1,0.1-2.2,0.2-3.3,0.2H626.5z M629.7,427.5h7.6c1.4,0,2.8-0.1,4-0.3c1.3-0.2,2.5-0.6,3.9-1.3
			c1.1-0.6,2-1.3,2.8-2.3c0.7-1,1.3-2,1.7-3.2c0.4-1.1,0.7-2.3,0.9-3.6c0.2-1.2,0.3-2.4,0.3-3.6c0-1.2-0.1-2.5-0.2-3.7
			c-0.2-1.3-0.5-2.5-0.9-3.6c-0.4-1.1-1-2.2-1.8-3.1c-0.7-1-1.7-1.7-2.9-2.4c-1-0.5-2.2-0.9-3.6-1c-1.4-0.2-2.8-0.2-4.2-0.2h-7.6
			V427.5z"/>
	</g>
	<rect x="71.2" y="355.2" class="st2" width="101.3" height="10.7"/>
	<rect x="172.2" y="355.2" class="st3" width="101.3" height="10.7"/>
	<rect x="273.1" y="355.2" class="st4" width="101.3" height="10.7"/>
	<rect x="475.1" y="355.2" class="st5" width="101.3" height="10.7"/>
	<rect x="576.1" y="355.2" class="st6" width="101.3" height="10.7"/>
	<rect x="677.1" y="355.2" class="st7" width="101.3" height="10.7"/>
	<rect x="374.1" y="355.2" class="st8" width="101.3" height="10.7"/>
</g>
</svg>
