<svg id="Layer_1" data-name="Layer 1" xmlns="http://www.w3.org/2000/svg" viewBox="0 0 200 200"><defs><style>.cls-1{fill:#fff;}.cls-2{fill:#666;}</style></defs><title>Lollipop_App icons_Approval</title><circle class="cls-1" cx="100" cy="100" r="92.29"/><path class="cls-2" d="M106.16,140.68H90a1.22,1.22,0,0,1-1.22-1.22l-.13-15.89a1.22,1.22,0,0,1,1.22-1.22H106a1.22,1.22,0,0,1,1.22,1.22l.13,15.89A1.22,1.22,0,0,1,106.16,140.68Z"/><path class="cls-2" d="M104.46,121.3H91.64a1,1,0,0,1-1-1l-.1-16.61a1,1,0,0,1,1-1h12.82a1,1,0,0,1,1,1l.1,16.61A1,1,0,0,1,104.46,121.3Z"/><path class="cls-2" d="M82.52,140.52H66.33a1.22,1.22,0,0,1-1.22-1.22L65,90.25A1.22,1.22,0,0,1,66.2,89H82.39a1.22,1.22,0,0,1,1.22,1.22l.13,49.05A1.22,1.22,0,0,1,82.52,140.52Z"/><path class="cls-2" d="M102.64,101.69l0-10.6a1.9,1.9,0,0,0-.22-1c-2.85-5.33-6.56-6.25-6.56-6.25-.35-.13-.73.29-.73.29a6.56,6.56,0,0,0-1.3,2.48c-1,2.46-.73,5.28-.82,7.89,0,1.29.08,4.94.1,7.15Z"/><polygon class="cls-2" points="123.12 98.02 111.22 98.02 110.56 83.89 124.17 83.89 123.12 98.02"/><path class="cls-2" d="M117.42,141.22h0a4.56,4.56,0,0,1-4.49-4.36L111.28,99h12.16L122,136.83A4.56,4.56,0,0,1,117.42,141.22Z"/><path class="cls-2" d="M129.66,58.78H104.92v0C97,60.34,100.44,69,100.44,69l9.64,13.89v-.1l0,.1h14.52L134.26,69S137.78,60.25,129.66,58.78Z"/></svg>