<svg id="Layer_1" data-name="Layer 1" xmlns="http://www.w3.org/2000/svg" viewBox="0 0 200 200"><defs><style>.cls-1{fill:#fff;}.cls-2{fill:#666;}</style></defs><title>Lollipop_App icons_Approval</title><circle class="cls-1" cx="100" cy="100" r="92.29"/><path class="cls-2" d="M119.18,107.31c-6.55,2.65-16.27,4.3-27.3,4.3a90.42,90.42,0,0,1-20.37-2.14c-10.71,3.19-17.59,8.13-17.59,13.69,0,9.62,20.63,17.42,46.07,17.42s46.07-7.8,46.07-17.42C146.07,116.12,135,110.07,119.18,107.31Z"/><path class="cls-2" d="M111.59,89.66A72.67,72.67,0,0,1,97.18,91a65.32,65.32,0,0,1-18.84-2.48c-12.37,1.74-21,5.79-21,10.5,0,4.13,6.66,7.76,16.64,9.76a92.67,92.67,0,0,0,17.95,1.65c9.8,0,18.65-1.35,24.94-3.51,6-2.05,9.65-4.83,9.65-7.9C126.47,95.15,120.58,91.72,111.59,89.66Z"/><path class="cls-2" d="M104.5,72.39a51.11,51.11,0,0,1-14.38,1.83,60.76,60.76,0,0,1-8.39-.56c-7,1.61-11.51,4.27-11.51,7.29,0,2.51,3.15,4.77,8.2,6.38.93.3,1.92.57,3,.82a69.44,69.44,0,0,0,15.79,1.69A75.52,75.52,0,0,0,108.49,89q1.62-.25,3.12-.56c7.52-1.58,12.51-4.35,12.51-7.51C124.13,76.88,115.83,73.45,104.5,72.39Z"/><path class="cls-2" d="M90.11,59.42c-11.42,0-20.68,3.05-20.68,6.82,0,2.78,5.05,5.17,12.29,6.23,1.27.19,2.6.33,4,.43s2.89.16,4.4.16a55.67,55.67,0,0,0,10.4-.93,35.07,35.07,0,0,0,3.77-.93c4-1.24,6.51-3,6.51-5C110.79,62.47,101.53,59.42,90.11,59.42Z"/></svg>