<svg id="Layer_1" data-name="Layer 1" xmlns="http://www.w3.org/2000/svg" viewBox="0 0 200 200"><defs><style>.cls-1{fill:#fff;}</style></defs><title>Lollipop_App icons_Approval</title><path class="cls-1" d="M100,7.71A92.29,92.29,0,1,0,192.29,100,92.29,92.29,0,0,0,100,7.71ZM124.13,81c0,3.16-5,5.93-12.51,7.51q-1.5.31-3.12.56a75.52,75.52,0,0,1-11.32.82,69.44,69.44,0,0,1-15.79-1.69c-1-.25-2-.52-3-.82-5.05-1.62-8.2-3.88-8.2-6.38,0-3,4.55-5.68,11.51-7.29a60.76,60.76,0,0,0,8.39.56,51.11,51.11,0,0,0,14.38-1.83C115.83,73.45,124.13,76.88,124.13,81Zm-34-21.53c11.42,0,20.68,3.05,20.68,6.82,0,2-2.51,3.72-6.51,5a35.07,35.07,0,0,1-3.77.93,55.67,55.67,0,0,1-10.4.93c-1.51,0-3-.06-4.4-.16s-2.72-.25-4-.43C74.49,71.41,69.44,69,69.44,66.24,69.44,62.47,78.7,59.42,90.11,59.42ZM78.34,88.53A65.32,65.32,0,0,0,97.18,91a72.67,72.67,0,0,0,14.41-1.35c9,2.06,14.88,5.49,14.88,9.38,0,3.07-3.68,5.85-9.65,7.9-6.29,2.16-15.14,3.51-24.94,3.51a92.67,92.67,0,0,1-17.95-1.65c-10-2-16.64-5.62-16.64-9.76C57.29,94.32,66,90.27,78.34,88.53ZM100,140.58c-25.45,0-46.07-7.8-46.07-17.42,0-5.55,6.88-10.5,17.59-13.69a90.42,90.42,0,0,0,20.37,2.14c11,0,20.75-1.65,27.3-4.3,15.87,2.75,26.89,8.81,26.89,15.84C146.07,132.78,125.45,140.58,100,140.58Z"/></svg>