<svg id="Layer_1" data-name="Layer 1" xmlns="http://www.w3.org/2000/svg" viewBox="0 0 200 200"><defs><style>.cls-1{fill:#fff;}.cls-2{fill:#666;}</style></defs><title>Lollipop_App icons_Approval</title><circle class="cls-1" cx="100" cy="100" r="92.29"/><path class="cls-2" d="M75.67,96.15h19A1.1,1.1,0,0,0,95.73,95L94,61.49a4.65,4.65,0,0,0-4.64-4.4H81.4a4.65,4.65,0,0,0-4.64,4.34L74.57,95A1.1,1.1,0,0,0,75.67,96.15Z"/><path class="cls-2" d="M67.27,107.5s.09-8,8.44-7.76l20.4.18s6.75-.14,6.89,7.35-1.78,25.46-3.88,30.53-5.8,4.93-5.8,4.93l-16.57.18s-5.11-1-6.43-8S66.76,111.74,67.27,107.5Z"/><path class="cls-2" d="M115.47,96.27h16.62a2.72,2.72,0,0,1,2.72,2.87l-2.25,40.42a2.86,2.86,0,0,1-2.86,2.7H118.07a2.86,2.86,0,0,1-2.86-2.69l-2.46-40.42A2.72,2.72,0,0,1,115.47,96.27Z"/><rect class="cls-2" x="122.07" y="70.72" width="3.16" height="22.15"/><path class="cls-2" d="M120.87,59.45h5.54a1,1,0,0,1,.93,1.3L125,67.66h-3.06l-2-7A1,1,0,0,1,120.87,59.45Z"/></svg>