<svg id="Layer_1" data-name="Layer 1" xmlns="http://www.w3.org/2000/svg" viewBox="0 0 200 200"><defs><style>.cls-1{fill:#fff;}</style></defs><title>Lollipop_App icons_Approval</title><path class="cls-1" d="M121.08,58.24H78.92a7.89,7.89,0,0,0-.5,2.52h43.16A7.89,7.89,0,0,0,121.08,58.24Z"/><path class="cls-1" d="M116.45,53.59l-1.6,1.79H87.35l-2.56-2.16a8,8,0,0,0-5.66,4.51h41.75A8,8,0,0,0,116.45,53.59Z"/><path class="cls-1" d="M83.89,68.58,86,66.24h27.49l2.74,2.3a8,8,0,0,0,4.67-4.26H79.11A8,8,0,0,0,83.89,68.58Z"/><path class="cls-1" d="M78.91,63.78h42.18a7.89,7.89,0,0,0,.49-2.52H78.42A7.89,7.89,0,0,0,78.91,63.78Z"/><path class="cls-1" d="M100,7.71A92.29,92.29,0,1,0,192.29,100,92.29,92.29,0,0,0,100,7.71Zm25.23,58.53a6.37,6.37,0,0,1-6.37,6.37H108.71c-1.67,6.23-6,12.22-5.86,18.45s3,11.37,2.51,17.72c-.26,3.23-1,6.42-1.23,9.65a29,29,0,0,0,0,5.3c.28,2.84,1.9,5.25,2.6,8a22.05,22.05,0,0,1,.57,9.24,15,15,0,0,1-2.32,5.83,10.62,10.62,0,0,1-3.27,3.44c-2.42,1.35-4.56-1.64-5.75-3.38a15,15,0,0,1-2.36-5.9,22.06,22.06,0,0,1,.57-9.24c.7-2.71,2.32-5.13,2.6-8a29,29,0,0,0,0-5.3c-.27-3.23-1-6.42-1.23-9.65C95,102.43,97.81,97.21,98,91.06s-4.19-12.22-5.86-18.45h-11a6.37,6.37,0,0,1-6.37-6.37V55.81a6.37,6.37,0,0,1,6.37-6.37h37.71a6.37,6.37,0,0,1,6.37,6.37Z"/></svg>