<svg id="Layer_1" data-name="Layer 1" xmlns="http://www.w3.org/2000/svg" viewBox="0 0 200 200"><defs><style>.cls-1{fill:#fff;}.cls-2{fill:#666;}</style></defs><title>Lollipop_App icons_Approval</title><circle class="cls-1" cx="100" cy="100" r="92.29"/><path class="cls-2" d="M118.86,49.43H81.14a6.37,6.37,0,0,0-6.37,6.37V66.24a6.37,6.37,0,0,0,6.37,6.37h11c1.67,6.23,6,12.22,5.86,18.45s-3,11.37-2.51,17.72c.26,3.23,1,6.42,1.23,9.65a29,29,0,0,1,0,5.3c-.28,2.84-1.9,5.25-2.6,8a22.06,22.06,0,0,0-.57,9.24,15,15,0,0,0,2.36,5.9c1.19,1.74,3.33,4.73,5.75,3.38a10.62,10.62,0,0,0,3.27-3.44,15,15,0,0,0,2.32-5.83,22.06,22.06,0,0,0-.57-9.24c-.7-2.71-2.32-5.13-2.6-8a29,29,0,0,1,0-5.3c.27-3.23,1-6.42,1.23-9.65.51-6.35-2.34-11.58-2.51-17.72s4.19-12.22,5.86-18.45h10.14a6.37,6.37,0,0,0,6.37-6.37V55.81A6.37,6.37,0,0,0,118.86,49.43ZM78.42,61.26h43.16a7.89,7.89,0,0,1-.49,2.52H78.91A7.89,7.89,0,0,1,78.42,61.26Zm0-.5a7.89,7.89,0,0,1,.5-2.52h42.16a7.89,7.89,0,0,1,.5,2.52Zm6.37-7.53,2.56,2.16h27.49l1.6-1.79a8,8,0,0,1,4.43,4.15H79.13A8,8,0,0,1,84.79,53.23Zm31.42,15.31-2.74-2.3H86l-2.09,2.34a8,8,0,0,1-4.78-4.3h41.77A8,8,0,0,1,116.21,68.54Z"/></svg>