<?xml version="1.0" encoding="utf-8"?>
<!-- Generator: Adobe Illustrator 20.0.0, SVG Export Plug-In . SVG Version: 6.00 Build 0)  -->
<svg version="1.1" id="Layer_1" xmlns="http://www.w3.org/2000/svg" xmlns:xlink="http://www.w3.org/1999/xlink" x="0px" y="0px"
	 viewBox="0 0 200 200" style="enable-background:new 0 0 200 200;" xml:space="preserve">
<style type="text/css">
	.st0{fill:#FFFFFF;}
	.st1{fill:#666666;}
</style>
<rect x="52.9" y="41.5" class="st0" width="94" height="119"/>
<g>
	<path class="st1" d="M100,7.7C49,7.7,7.7,49,7.7,100c0,51,41.3,92.3,92.3,92.3c51,0,92.3-41.3,92.3-92.3C192.3,49,151,7.7,100,7.7z
		 M114.1,143.3c0,0.8-0.6,1.4-1.4,1.4h-2.3c-1.6,3.6-5.7,6.1-10.4,6.1c-4.7,0-8.7-2.5-10.4-6.1h-2.3c-0.8,0-1.4-0.6-1.4-1.4v-3.8
		c0-0.8,0.6-1.4,1.4-1.4h25.4c0.8,0,1.4,0.6,1.4,1.4V143.3z M90.1,103.3l20.9,12.9c0.3,0.2,0.5,0.5,0.5,0.8v5.8
		c0,0.7-0.8,1.2-1.5,0.8l-20.9-12.9c-0.3-0.2-0.5-0.5-0.5-0.8v-5.8C88.7,103.4,89.5,102.9,90.1,103.3z M88.7,97.4v-5.8
		c0-0.7,0.8-1.2,1.5-0.8l20.9,12.9c0.3,0.2,0.5,0.5,0.5,0.8v5.8c0,0.7-0.8,1.2-1.5,0.8L89.1,98.2C88.9,98,88.7,97.7,88.7,97.4z
		 M90.1,116l20.8,12.8c0.5,0.3,0.8,0.8,0.8,1.4v2.7c0,0.8-0.7,1.5-1.5,1.6c-1,0-2.3,0.1-3.1,0.1c-0.4,0-0.8-0.1-1.1-0.3l-16.7-10.5
		c-0.5-0.3-0.8-0.8-0.8-1.4l-0.1-5.4C88.5,116.1,89.4,115.6,90.1,116z M110.7,86.6l-8.4-5.6c-0.5-0.3-0.3-1.2,0.4-1.2h8.4
		c0.4,0,0.6,0.3,0.6,0.6v5.6C111.7,86.6,111.1,86.9,110.7,86.6z M110.7,90.6c0.5,0.3,0.8,0.8,0.8,1.4l0.1,5.4c0,0.9-0.9,1.4-1.7,0.9
		L89.1,85.5c-0.5-0.3-0.8-0.8-0.8-1.4v-2.7c0-0.8,0.7-1.5,1.5-1.6c1,0,2.3-0.1,3.1-0.1c0.4,0,0.8,0.1,1.1,0.3L110.7,90.6z
		 M89.4,127.7l8.4,5.6c0.5,0.3,0.3,1.2-0.4,1.2H89c-0.4,0-0.6-0.3-0.6-0.6v-5.6C88.4,127.7,88.9,127.4,89.4,127.7z M114.1,74.9
		c0,0.8-0.6,1.4-1.4,1.4H87.3c-0.8,0-1.4-0.6-1.4-1.4v-3.8c0-0.8,0.6-1.4,1.4-1.4h1.5c-1.4-2.1-2.2-4.6-2.2-7.3
		c0-7.4,6-13.3,13.3-13.3s13.3,6,13.3,13.3c0,2.7-0.8,5.2-2.2,7.3h1.7c0.8,0,1.4,0.6,1.4,1.4V74.9z"/>
	<path class="st1" d="M99.9,75.8c4.7,0,8.7-2.4,11.1-6H88.8C91.2,73.4,95.3,75.8,99.9,75.8z"/>
	<path class="st1" d="M88.9,141.8c0.1,1,0.3,2,0.8,2.9h20.7c0.4-0.9,0.7-1.9,0.8-2.9C104.2,141.8,95.5,141.8,88.9,141.8z"/>
</g>
</svg>
