<?xml version="1.0" encoding="utf-8"?>
<!-- Generator: Adobe Illustrator 20.0.0, SVG Export Plug-In . SVG Version: 6.00 Build 0)  -->
<svg version="1.1" id="Layer_1" xmlns="http://www.w3.org/2000/svg" xmlns:xlink="http://www.w3.org/1999/xlink" x="0px" y="0px"
	 viewBox="0 0 200 200" style="enable-background:new 0 0 200 200;" xml:space="preserve">
<style type="text/css">
	.st0{fill:#FFFFFF;}
	.st1{fill:#666666;}
</style>
<rect x="54.3" y="43.5" class="st0" width="94" height="119"/>
<g>
	<path class="st1" d="M91.9,131.2c-2.7,3.8-2,9.7,1.9,12.7c2,1.5,5.2,1.5,7.2-0.2c1.6-1.4,2.6-3,2.9-5.1c0.5-3.1-0.3-5.8-1.4-7.1
		C98.6,127.4,94.3,127.9,91.9,131.2z"/>
	<path class="st1" d="M84.9,98.8c-0.6,0.6-0.6,1.6,0.1,2.2c0.6,0.6,1.7,0.5,2.2-0.1c0.6-0.6,0.5-1.7-0.1-2.2
		C86.5,98.1,85.5,98.2,84.9,98.8z"/>
	<path class="st1" d="M73.7,127.4c-2.8,0.3-4.5,2.1-5.5,4.6c-1.1,2.8-0.9,5.7,0.5,8.4c2.1,4,7,4.7,10.1,1.6c0.2-0.3,0.5-0.6,0.7-0.9
		c0.2-0.3,0.4-0.6,0.5-0.8c1.6-3.1,1.6-6.2,0-9.3C78.8,128.6,76.2,127.1,73.7,127.4z"/>
	<path class="st1" d="M100,7.7C49,7.7,7.7,49,7.7,100c0,51,41.3,92.3,92.3,92.3s92.3-41.3,92.3-92.3C192.3,49,151,7.7,100,7.7z
		 M86.3,137c-0.1,1.1-1,2-2.1,2.2c-0.5,0-0.6,0.3-0.8,0.7c-0.7,1.9-1.8,3.6-3.3,4.9c-3.1,2.8-8.1,2.9-11.3,0.3
		c-3.4-2.8-4.7-6.5-4.3-10.8c0.3-3.3,1.8-6,4.4-8c1.4-1.1,2.9-1.7,4.7-1.8c0.4,0,0.6-0.2,0.7-0.6c1.8-5.1,3.6-10.2,5.4-15.3
		c0.3-1,0.7-2,1.1-3c1.7,0.8,3.3,1.5,5,2.3c-2.5,5.8-5.1,11.6-7.6,17.5c2.3,1.2,3.9,3,4.9,5.3c0.4,0.9,0.7,2,0.9,3
		c0.1,0.5,0.2,0.8,0.8,1C85.8,134.8,86.5,135.9,86.3,137z M112.7,149.6c-0.2,0.1-0.3,0.1-0.5,0.2c-0.8,0.3-1.5,0.4-2.2-0.2
		c-1.1-0.9-2.2-1.6-3.3-2.4c-1-0.6-2.1-0.9-3.3-0.8c-0.5,0-1,0.1-1.4,0.3c-4.8,2.8-10.4,0.5-12.9-4.1c-1.9-3.5-2.2-7.2-0.7-11
		c1.1-2.6,2.9-4.6,5.5-5.7c0.2-0.1,0.3-0.2,0.6-0.3c-0.3-0.9-0.7-1.9-1-2.8c-2-5.6-4.1-11.1-6.2-16.6c-0.1-0.3-0.5-0.6-0.8-0.8
		c-1.5-0.9-3.1-1.7-4.7-2.5c-0.4-0.2-0.5-0.4-0.5-0.8c0.3-3.6,0.6-7.1,0.9-10.7c0.4-5.5,0.8-11,1.3-16.4c0.5-5.9,1-11.7,1.4-17.6
		c0.2-2.4,0.4-4.8,1.1-7.1c0-0.1,0.1-0.2,0.2-0.4c0.2,0.3,0.3,0.6,0.4,0.8c1,1.5,1.2,3.2,1.3,5c0.3,4.4,0.6,8.8,0.9,13.2
		c0.3,4.3,0.6,8.5,0.9,12.8c0.5,6.5,1,13,1.4,19.5c0.1,2,0.9,3.7,1.6,5.5c1.8,5,3.7,9.9,5.6,14.8c0.5,1.3,0.9,2.6,1.5,3.8
		c0.1,0.3,0.5,0.7,0.8,0.8c3.9,1.8,5.8,5,6.5,9.1c0.2,1.5,0.2,3-0.2,4.4c-0.2,1,0,2,0.5,2.9c0.9,1.5,2,2.8,3.4,3.9
		c0.7,0.6,1.5,1.2,2.1,1.8c0.2,0.2,0.3,0.5,0.4,0.7C113,149.2,112.8,149.4,112.7,149.6z M133.7,136.9c-0.1,2-0.3,3.9-0.7,5.8l0,0
		c0,0,0,0,0,0c0,0,0,0,0,0l0,0c-0.4,1.8-1.3,3.4-3.3,3.4c-2.8,0-5.2-0.4-7.8-1.1c-1.7-0.5-3.4-1-5.2-1.6c-0.1,0-0.2-0.1-0.3-0.2
		c-0.1-0.1-0.1-0.2-0.1-0.3c0-0.2,0-0.2,0.2-0.2c0.3,0,0.6,0,0.9,0c0.4,0,0.7,0,1.1,0c0.7,0,1.5,0,2.2,0.1c1.5,0,2.9,0.1,4.4,0.1
		c0.6,0,1.2,0,1.7,0c0,0,0,0,0,0c0,0,0,0,0,0c0-0.1,0-0.2,0-0.2c0-0.3,0-0.5,0-0.8c0,0,0,0,0,0h-9.9c-0.2,0-0.3-0.1-0.3-0.3v-0.4
		c0-0.2,0.1-0.3,0.3-0.3h9.9c0,0,0,0,0,0c0-0.5,0-0.9,0-1.4h-9.9c-0.2,0-0.3-0.1-0.3-0.3v-0.4c0-0.2,0.1-0.3,0.3-0.3h10
		c0-0.3,0-0.6,0-0.9c0-0.2,0-0.3,0-0.5h-10c-0.2,0-0.3-0.1-0.3-0.3v-0.4c0-0.2,0.1-0.3,0.3-0.3h10c0-0.2,0-0.4,0-0.6
		c0-0.3,0-0.5,0-0.8h-10c-0.2,0-0.3-0.1-0.3-0.3v-0.4c0-0.2,0.1-0.3,0.3-0.3h10c0-0.2,0-0.4,0-0.6c0-0.3,0-0.6,0-0.8H117
		c-0.2,0-0.3-0.1-0.3-0.3v-0.4c0-0.2,0.1-0.3,0.3-0.3h9.9c0-0.3,0-0.5,0-0.8c0-0.2,0-0.4,0-0.6H117c-0.2,0-0.3-0.1-0.3-0.3v-0.4
		c0-0.2,0.1-0.3,0.3-0.3h9.9c0-0.4,0-0.8,0-1.3c0,0,0-0.1,0-0.1h-10.1c-0.2,0-0.3-0.1-0.3-0.3v-0.4c0-0.2,0.1-0.3,0.3-0.3h10.1
		c0-0.5,0-0.9,0-1.4h-10.1c-0.2,0-0.3-0.1-0.3-0.3v-0.4c0-0.2,0.1-0.3,0.3-0.3H127c0-0.5,0-0.9,0-1.4h-10c-0.2,0-0.3-0.1-0.3-0.3
		v-0.4c0-0.2,0.1-0.3,0.3-0.3h10c0-0.1,0-0.2,0-0.3c0-0.4,0-0.8,0-1.2h-10c-0.2,0-0.3-0.1-0.3-0.3v-0.4c0-0.2,0.1-0.3,0.3-0.3H127
		c0-0.4,0-0.8,0-1.2c0-0.1,0-0.1,0-0.2h-10.2c-0.2,0-0.3-0.1-0.3-0.3v-0.4c0-0.2,0.1-0.3,0.3-0.3h10.3c0-0.5,0-0.9,0-1.4h-10.3
		c-0.2,0-0.3-0.1-0.3-0.3v-0.4c0-0.2,0.1-0.3,0.3-0.3h10.3c0-0.5,0-0.9,0-1.4H117c-0.2,0-0.3-0.1-0.3-0.3v-0.4
		c0-0.2,0.1-0.3,0.3-0.3h10.2c0-0.3,0-0.7,0-1c0-0.1,0-0.3,0-0.4H117c-0.2,0-0.3-0.1-0.3-0.3v-0.4c0-0.2,0.1-0.3,0.3-0.3h10.2
		c0-0.5,0-0.9,0-1.4h-10.4c-0.2,0-0.3-0.1-0.3-0.3v-0.4c0-0.2,0.1-0.3,0.3-0.3h10.4c0-0.5,0-0.9,0-1.4h-10.4c-0.2,0-0.3-0.1-0.3-0.3
		v-0.4c0-0.2,0.1-0.3,0.3-0.3h10.4c0-0.4,0-0.7,0-1.1c0-0.1,0-0.2,0-0.3H117c-0.2,0-0.3-0.1-0.3-0.3v-0.4c0-0.2,0.1-0.3,0.3-0.3
		h10.3c0-0.5,0-0.9,0-1.4H117c-0.2,0-0.3-0.1-0.3-0.3v-0.4c0-0.2,0.1-0.3,0.3-0.3h10.3c0-0.5,0-0.9,0-1.4h-10.5
		c-0.2,0-0.3-0.1-0.3-0.3V96c0-0.2,0.1-0.3,0.3-0.3h10.5c0-0.4,0-0.8,0-1.2c0-0.1,0-0.2,0-0.3h-10.6c-0.2,0-0.3-0.1-0.3-0.3v-0.4
		c0-0.2,0.1-0.3,0.3-0.3h10.6c0-0.5,0-0.9,0-1.4H117c-0.2,0-0.3-0.1-0.3-0.3V91c0-0.2,0.1-0.3,0.3-0.3h10.4c0-0.5,0-0.9,0-1.4H117
		c-0.2,0-0.3-0.1-0.3-0.3v-0.4c0-0.2,0.1-0.3,0.3-0.3h10.5c0-0.4,0-0.7,0-1.1c0-0.1,0-0.2,0-0.3h-10.7c-0.2,0-0.3-0.1-0.3-0.3V86
		c0-0.2,0.1-0.3,0.3-0.3h10.7c0-0.5,0-0.9,0-1.4h-10.7c-0.2,0-0.3-0.1-0.3-0.3v-0.4c0-0.2,0.1-0.3,0.3-0.3h10.7c0-0.5,0-0.9,0-1.4
		H117c-0.2,0-0.3-0.1-0.3-0.3V81c0-0.2,0.1-0.3,0.3-0.3h10.6c0-0.2,0-0.4,0-0.6c0-0.3,0-0.6,0-0.8H117c-0.2,0-0.3-0.1-0.3-0.3v-0.4
		c0-0.2,0.1-0.3,0.3-0.3h10.6c0-0.5,0-0.9,0-1.4c0,0,0,0,0,0h-10.8c-0.2,0-0.3-0.1-0.3-0.3v-0.4c0-0.2,0.1-0.3,0.3-0.3h10.8
		c0-0.5,0-0.9,0-1.4h-10.8c-0.2,0-0.3-0.1-0.3-0.3v-0.4c0-0.2,0.1-0.3,0.3-0.3h10.8c0-0.5,0-0.9,0-1.4H117c-0.2,0-0.3-0.1-0.3-0.3
		v-0.4c0-0.2,0.1-0.3,0.3-0.3h10.7c0-0.5,0-0.9,0-1.4H117c-0.2,0-0.3-0.1-0.3-0.3v-0.4c0-0.2,0.1-0.3,0.3-0.3h10.7c0,0,0,0,0,0
		c0-0.5,0-0.9,0-1.4h-10.9c-0.2,0-0.3-0.1-0.3-0.3v-0.4c0-0.2,0.1-0.3,0.3-0.3h10.9c0-0.5,0-0.9,0-1.4h-11c-0.2,0-0.3-0.1-0.3-0.3
		v-0.4c0-0.2,0.1-0.3,0.3-0.3h11c0-0.4,0-0.9,0-1.3c0,0,0-0.1,0-0.1H117c-0.2,0-0.3-0.1-0.3-0.3v-0.4c0-0.2,0.1-0.3,0.3-0.3h10.8
		c0-0.1,0-0.2,0-0.2c0-0.4,0-0.7,0-1.1c0,0,0-0.1,0-0.1H117c-0.2,0-0.3-0.1-0.3-0.3v-0.4c0-0.2,0.1-0.3,0.3-0.3h10.9l0-0.9
		c-0.2-0.1-0.5-0.1-0.7-0.1c-0.6,0-1.2,0-1.7,0c-1.5,0-2.9,0-4.4,0.1c-0.7,0-1.5,0-2.2,0.1c-0.4,0-0.7,0-1.1,0c-0.3,0-0.6,0.1-0.9,0
		c-0.2,0-0.2,0-0.2-0.2c0-0.1,0.1-0.3,0.1-0.3c0.1-0.1,0.2-0.1,0.3-0.2c1.7-0.6,3.4-1.2,5.2-1.6c2.7-0.7,5.4-1.1,8.2-1.1
		c2,0,3.2,1.2,3.7,3c0.4,1.7,0.6,3.5,0.7,5.3C136,87.1,135.6,112,133.7,136.9z"/>
</g>
</svg>
