<?xml version="1.0" encoding="utf-8"?>
<!-- Generator: Adobe Illustrator 20.0.0, SVG Export Plug-In . SVG Version: 6.00 Build 0)  -->
<svg version="1.1" id="Layer_1" xmlns="http://www.w3.org/2000/svg" xmlns:xlink="http://www.w3.org/1999/xlink" x="0px" y="0px"
	 viewBox="0 0 200 200" style="enable-background:new 0 0 200 200;" xml:space="preserve">
<style type="text/css">
	.st0{fill:#FFFFFF;}
	.st1{fill:#666666;}
</style>
<rect x="52.7" y="42.2" class="st0" width="94" height="119"/>
<path class="st1" d="M100,7.7C49,7.7,7.7,49,7.7,100c0,51,41.3,92.3,92.3,92.3c51,0,92.3-41.3,92.3-92.3C192.3,49,151,7.7,100,7.7z
	 M93,94.5c0.1-2.6-0.2-5.4,0.8-7.9c0.3-0.8,0.6-1.9,1.3-2.5c0,0,0.4-0.4,0.7-0.3c0,0,3.7,0.9,6.6,6.3c0.2,0.3,0.2,0.6,0.2,1l0,10.6
	h-9.5C93.1,99.5,93,95.8,93,94.5z M91.5,102.8h12.8c0.5,0,1,0.4,1,1l0.1,16.6c0,0.5-0.4,1-1,1H91.6c-0.5,0-1-0.4-1-1l-0.1-16.6
	C90.6,103.2,91,102.8,91.5,102.8z M82.5,140.5H66.3c-0.7,0-1.2-0.5-1.2-1.2L65,90.3c0-0.7,0.5-1.2,1.2-1.2h16.2
	c0.7,0,1.2,0.5,1.2,1.2l0.1,49.1C83.7,140,83.2,140.5,82.5,140.5z M106.2,140.7H90c-0.7,0-1.2-0.5-1.2-1.2l-0.1-15.9
	c0-0.7,0.5-1.2,1.2-1.2H106c0.7,0,1.2,0.5,1.2,1.2l0.1,15.9C107.4,140.1,106.8,140.7,106.2,140.7z M122,136.8
	c-0.1,2.5-2.1,4.4-4.6,4.4c-2.4,0-4.4-1.9-4.5-4.4L111.3,99h12.2L122,136.8z M123.1,98h-11.9l-0.7-14.1h13.6L123.1,98z M134.3,69
	l-9.6,13.9h-14.5l0-0.1l0,0.1L100.4,69c0,0-3.5-8.6,4.5-10.2l0,0h24.7C137.8,60.2,134.3,69,134.3,69z"/>
</svg>
