<?xml version="1.0" encoding="utf-8"?>
<!-- Generator: Adobe Illustrator 20.0.0, SVG Export Plug-In . SVG Version: 6.00 Build 0)  -->
<svg version="1.1" id="Layer_1" xmlns="http://www.w3.org/2000/svg" xmlns:xlink="http://www.w3.org/1999/xlink" x="0px" y="0px"
	 viewBox="0 0 200 200" style="enable-background:new 0 0 200 200;" xml:space="preserve">
<style type="text/css">
	.st0{fill:#FFFFFF;}
	.st1{fill:#666666;}
</style>
<rect x="44.9" y="33.5" class="st0" width="111.1" height="119"/>
<path class="st1" d="M100,7.7C49,7.7,7.7,49,7.7,100c0,51,41.3,92.3,92.3,92.3s92.3-41.3,92.3-92.3C192.3,49,151,7.7,100,7.7z
	 M124.1,81c0,3.2-5,5.9-12.5,7.5c-1,0.2-2,0.4-3.1,0.6c-3.4,0.5-7.3,0.8-11.3,0.8c-5.9,0-11.4-0.6-15.8-1.7c-1-0.3-2-0.5-3-0.8
	c-5.1-1.6-8.2-3.9-8.2-6.4c0-3,4.6-5.7,11.5-7.3c2.6,0.4,5.4,0.6,8.4,0.6c5.6,0,10.6-0.7,14.4-1.8C115.8,73.4,124.1,76.9,124.1,81z
	 M90.1,59.4c11.4,0,20.7,3.1,20.7,6.8c0,2-2.5,3.7-6.5,5c-1.1,0.4-2.4,0.7-3.8,0.9c-3.1,0.6-6.6,0.9-10.4,0.9c-1.5,0-3-0.1-4.4-0.2
	c-1.4-0.1-2.7-0.2-4-0.4c-7.2-1.1-12.3-3.4-12.3-6.2C69.4,62.5,78.7,59.4,90.1,59.4z M78.3,88.5c5,1.5,11.5,2.5,18.8,2.5
	c5.3,0,10.2-0.5,14.4-1.4c9,2.1,14.9,5.5,14.9,9.4c0,3.1-3.7,5.9-9.6,7.9c-6.3,2.2-15.1,3.5-24.9,3.5c-6.6,0-12.7-0.6-17.9-1.7
	c-10-2-16.6-5.6-16.6-9.8C57.3,94.3,66,90.3,78.3,88.5z M100,140.6c-25.4,0-46.1-7.8-46.1-17.4c0-5.6,6.9-10.5,17.6-13.7
	c5.8,1.4,12.7,2.1,20.4,2.1c11,0,20.7-1.7,27.3-4.3c15.9,2.8,26.9,8.8,26.9,15.8C146.1,132.8,125.4,140.6,100,140.6z"/>
</svg>
