<?xml version="1.0" encoding="utf-8"?>
<!-- Generator: Adobe Illustrator 20.0.0, SVG Export Plug-In . SVG Version: 6.00 Build 0)  -->
<svg version="1.1" id="Layer_1" xmlns="http://www.w3.org/2000/svg" xmlns:xlink="http://www.w3.org/1999/xlink" x="0px" y="0px"
	 viewBox="0 0 200 200" style="enable-background:new 0 0 200 200;" xml:space="preserve">
<style type="text/css">
	.st0{fill:#FFFFFF;}
	.st1{fill:#666666;}
</style>
<rect x="55.3" y="36.9" class="st0" width="94" height="119"/>
<path class="st1" d="M100,7.7C49,7.7,7.7,49,7.7,100c0,51,41.3,92.3,92.3,92.3c51,0,92.3-41.3,92.3-92.3C192.3,49,151,7.7,100,7.7z
	 M120.9,59.4h5.5c0.7,0,1.1,0.7,0.9,1.3l-2.3,6.9h-3.1l-2-7C119.7,60.1,120.2,59.4,120.9,59.4z M125.2,70.7v22.1h-3.2V70.7H125.2z
	 M76.8,61.4c0.2-2.4,2.2-4.3,4.6-4.3h7.9c2.5,0,4.5,1.9,4.6,4.4L95.7,95c0,0.6-0.5,1.2-1.1,1.2h-19c-0.6,0-1.1-0.5-1.1-1.2
	L76.8,61.4z M99.1,137.8c-2.1,5.1-5.8,4.9-5.8,4.9l-16.6,0.2c0,0-5.1-1-6.4-8c-1.3-7-3.6-23.1-3.1-27.4c0,0,0.1-8,8.4-7.8l20.4,0.2
	c0,0,6.8-0.1,6.9,7.3S101.2,132.7,99.1,137.8z M132.6,139.6c-0.1,1.5-1.3,2.7-2.9,2.7h-11.6c-1.5,0-2.8-1.2-2.9-2.7l-2.5-40.4
	c-0.1-1.6,1.1-2.9,2.7-2.9h16.6c1.6,0,2.8,1.3,2.7,2.9L132.6,139.6z"/>
</svg>
