<?xml version="1.0" encoding="utf-8"?>
<!-- Generator: Adobe Illustrator 20.0.0, SVG Export Plug-In . SVG Version: 6.00 Build 0)  -->
<svg version="1.1" id="Layer_1" xmlns="http://www.w3.org/2000/svg" xmlns:xlink="http://www.w3.org/1999/xlink" x="0px" y="0px"
	 viewBox="0 0 200 200" style="enable-background:new 0 0 200 200;" xml:space="preserve">
<style type="text/css">
	.st0{fill:#FFFFFF;}
	.st1{fill:#666666;}
</style>
<rect x="49.7" y="34.8" class="st0" width="94" height="119"/>
<g>
	<path class="st1" d="M121.1,58.2H78.9c-0.3,0.8-0.5,1.6-0.5,2.5h43.2C121.5,59.9,121.4,59,121.1,58.2z"/>
	<path class="st1" d="M116.4,53.6l-1.6,1.8H87.4l-2.6-2.2c-2.5,0.5-4.6,2.2-5.7,4.5h41.7C120,55.8,118.4,54.3,116.4,53.6z"/>
	<path class="st1" d="M83.9,68.6l2.1-2.3h27.5l2.7,2.3c2.1-0.7,3.8-2.3,4.7-4.3H79.1C80,66.3,81.8,67.9,83.9,68.6z"/>
	<path class="st1" d="M78.9,63.8h42.2c0.3-0.8,0.5-1.6,0.5-2.5H78.4C78.4,62.1,78.6,63,78.9,63.8z"/>
	<path class="st1" d="M100,7.7C49,7.7,7.7,49,7.7,100S49,192.3,100,192.3c51,0,92.3-41.3,92.3-92.3S151,7.7,100,7.7z M125.2,66.2
		c0,3.5-2.9,6.4-6.4,6.4h-10.1c-1.7,6.2-6,12.2-5.9,18.4c0.2,6.1,3,11.4,2.5,17.7c-0.3,3.2-1,6.4-1.2,9.7c-0.1,1.8-0.2,3.5,0,5.3
		c0.3,2.8,1.9,5.3,2.6,8c0.8,3,1.1,6.2,0.6,9.2c-0.4,2.1-1.1,4.1-2.3,5.8c-0.9,1.3-1.9,2.7-3.3,3.4c-2.4,1.4-4.6-1.6-5.8-3.4
		c-1.2-1.8-2-3.8-2.4-5.9c-0.5-3.1-0.2-6.2,0.6-9.2c0.7-2.7,2.3-5.1,2.6-8c0.2-1.8,0.1-3.5,0-5.3c-0.3-3.2-1-6.4-1.2-9.7
		c-0.5-6.4,2.3-11.6,2.5-17.7c0.2-6.2-4.2-12.2-5.9-18.4h-11c-3.5,0-6.4-2.9-6.4-6.4V55.8c0-3.5,2.9-6.4,6.4-6.4h37.7
		c3.5,0,6.4,2.9,6.4,6.4V66.2z"/>
</g>
</svg>
